<svg xmlns="http://www.w3.org/2000/svg" viewBox="0 0 255.1 173.9" enable-background="new 0 0 255.1 173.9"><path fill="#000319" d="M69.9 110.9L74 93.6h4.3L72.5 117h-5l-4-15.9-4 15.9h-5l-5.8-23.4H53l4.2 17.2 4.4-17.2h4l4.3 17.3zM98 111.4c.2 2 1.7 3 3.9 3 1.6 0 2.9-.6 2.9-1.7s-.7-1.6-2.3-1.9l-2.5-.4c-3.4-.6-5.2-1.9-5.2-4.9 0-3.1 2.5-5.3 6.5-5.3 4.4 0 7 2 7.3 5.7l-3.5.1c-.3-1.9-1.5-2.8-3.8-2.8-1.5 0-2.5.7-2.5 1.8 0 .9.6 1.4 1.7 1.6l3 .5c3.3.6 5.3 2 5.3 5.1 0 3.3-2.8 5.2-6.9 5.2-4.1 0-7.3-1.9-7.5-5.9l3.6-.1zM189.6 93.6V117h-4.3V93.6h4.3zM182.9 114.3c-.7 0-1.1-.4-1.1-1.3v-6.6c0-4.3-2.7-6.3-6.8-6.3-4.2 0-6.6 2.3-7.2 5.7l3.9.4c.4-1.6 1.3-2.7 3.1-2.7s2.8 1.1 2.8 2.9v.5l-4.3.8c-3.6.7-6 2-6 5.2 0 2.8 2 4.5 5.3 4.5 2.3 0 4.9-1.2 5.4-2.3.3 1.2 1.5 2.3 3.3 2.3.9 0 1.6-.1 2.1-.4v-2.8c-.2.1-.4.1-.5.1zm-5.3-4.4c0 2.6-1.7 4.4-4 4.4-1.4 0-2.2-.7-2.2-1.8 0-1.6 1.3-2 3.2-2.4l3-.5v.3zM117.8 113.9c-1.3 0-1.9-.6-1.9-2v-8.1h3.4v-3.1h-3.4v-4.5h-3s0 1.4-.3 2.2c-.2.8-.7 2.3-2.2 2.6l-1.1.2v2.6h2.3v9.1c0 3.5 2 4.6 4.5 4.6 1.3 0 2.3-.2 3.2-.7v-3.2c-.5.2-1 .3-1.5.3zM147 100.3c-2.2 0-3.8 1.5-4.4 3v-2.6h-4.3V117h4.3v-8.1c0-3 1.5-4.6 3.7-4.6.7 0 1.3.1 1.8.3l.9-3.8c-.5-.3-1.2-.5-2-.5zM85.2 114.1c-2.3 0-4.1-1.7-4.3-4.1h11.8v-1.6c0-4.5-2.6-8.2-7.8-8.2-4.7 0-8.3 3.7-8.3 8.9s3.5 8.4 8.4 8.4c3.8 0 6.4-1.9 7.4-5.2l-3.4-.7c-.5 1.6-1.8 2.5-3.8 2.5zm-.3-10.7c2.4 0 3.5 1.8 3.6 3.7H81c.4-2 1.6-3.7 3.9-3.7zM128.7 114.1c-2.3 0-4.1-1.7-4.3-4.1h11.8v-1.6c0-4.5-2.6-8.2-7.8-8.2-4.7 0-8.3 3.7-8.3 8.9s3.5 8.4 8.4 8.4c3.8 0 6.4-1.9 7.4-5.2l-3.4-.7c-.6 1.6-1.8 2.5-3.8 2.5zm-.3-10.7c2.4 0 3.5 1.8 3.6 3.7h-7.6c.4-2 1.6-3.7 4-3.7zM195.4 111.4c.2 2 1.7 3 3.9 3 1.6 0 2.9-.6 2.9-1.7s-.7-1.6-2.3-1.9l-2.5-.4c-3.4-.6-5.2-1.9-5.2-4.9 0-3.1 2.5-5.3 6.5-5.3 4.4 0 7 2 7.3 5.7l-3.5.1c-.3-1.9-1.5-2.8-3.8-2.8-1.5 0-2.5.7-2.5 1.8 0 .9.6 1.4 1.7 1.6l3 .5c3.3.6 5.3 2 5.3 5.1 0 3.3-2.8 5.2-6.9 5.2-4.1 0-7.3-1.9-7.5-5.9l3.6-.1zM165.2 93.6H161.1v8.7c-1.2-1.3-2.8-2.1-5-2.1-4.7 0-7.1 3.8-7.1 8.7 0 4.8 2.4 8.6 7.1 8.6 2.1 0 3.8-.7 5-2v1.6h4.3V93.6h-.2zm-7.8 20.4c-2.7 0-4.1-2.1-4.1-5.1 0-3.1 1.4-5.2 4.1-5.2 2.4 0 4.2 1.9 4.2 4.8v.6c0 3.1-1.8 4.9-4.2 4.9z"/><g fill="#000319"><path d="M145.6 64.8h2v5h1.5v-5h2.1v-1.3h-5.6zM128.4 64.8c.6 0 1 .3 1.3.8l1.4-.5c-.4-1.1-1.4-1.7-2.7-1.7-1.8 0-3.1 1.4-3.1 3.3s1.3 3.3 3.1 3.3c1.3 0 2.2-.6 2.6-1.6l-1.4-.5c-.2.5-.7.7-1.3.7-.9 0-1.5-.7-1.5-1.9.1-1.2.7-1.9 1.6-1.9zM157.9 30.7c-5.5 0-7.1 4.9-8.6 9.2-1.4 4.1-2.4 6.7-5 7.3v-1c.2-6.4.6-10.3 4.1-10.3.7 0 1.3-.6 1.3-1.3 0-.7-.6-1.3-1.3-1.3-6.2 0-6.5 6.8-6.6 12.7v1c-2.4-.7-3.5-3.3-4.8-7.3-1.4-4.3-3.1-9.2-8.6-9.2s-7.1 4.9-8.6 9.2c-1.3 4-2.4 6.6-4.8 7.3v-1c-.2-6-.4-12.7-6.6-12.7-.7 0-1.3.6-1.3 1.3 0 .7.6 1.3 1.3 1.3 3.6 0 3.9 3.9 4.1 10.3v1c-2.6-.6-3.7-3.3-5-7.3-1.4-4.3-3.1-9.2-8.6-9.2-.7 0-1.3.6-1.3 1.3 0 .7.6 1.3 1.3 1.3 3.5 0 4.6 2.8 6.2 7.5 1.3 4 2.8 8.5 7.5 9.1.3 4.3 1.3 8.3 5.2 9.1.4.1.9.1 1.2.1 1 0 1.9-.3 2.7-.8 2.2-1.6 2.8-5 3.3-8.3.7-4.3 1.3-7 3.4-7 2.2 0 2.8 2.6 3.4 7 .5 3.3 1.1 6.8 3.3 8.3 1.1.7 2.4 1 3.9.7 3.9-.8 4.8-4.8 5.1-9.1 4.7-.6 6.2-5.1 7.5-9.1 1.5-4.6 2.7-7.5 6.2-7.5.7 0 1.3-.6 1.3-1.3 0-.8-.5-1.3-1.2-1.3zm-19.4 25.7c-.9.2-1.5.1-2-.3-1.5-1-1.8-3.8-2.2-6.6-.6-4.1-1.4-9.1-5.9-9.1s-5.3 5.1-5.9 9.1c-.4 2.8-.7 5.6-2.2 6.6-.5.3-1.1.4-2 .3-2.2-.4-2.8-2.9-3.1-6.7 4.3-.8 5.8-5.1 7.1-9 1.5-4.6 2.7-7.5 6.2-7.5s4.6 2.8 6.2 7.5c1.3 3.9 2.8 8.2 7.1 9-.4 3.8-1.1 6.2-3.3 6.7zM140.2 67.3l9.9-15.4c.4-.6.2-1.4-.4-1.7-.6-.4-1.4-.2-1.7.4l-9.5 14.7-9.1-11-.6-.7c-.1-.1-.3-.2-.5-.2s-.4.1-.5.2l-.4.5-9.2 11.2-9.5-14.7c-.4-.6-1.2-.7-1.7-.4-.6.4-.7 1.2-.4 1.7l9.9 15.4-1.8 2.1-.3.4c-.5.7-.7 1.5-.7 2.3 0 1.1.4 2.1 1.2 2.9.8.8 1.8 1.2 2.9 1.2 2.2 0 4-1.8 4-4 0-.8-.2-1.5-.6-2.2l-1.6-2.4 8.7-10.5 8.7 10.5-1.6 2.4c-.4.7-.6 1.4-.6 2.2 0 2.2 1.8 4 4 4 1.1 0 2.1-.4 2.9-1.2.8-.8 1.2-1.8 1.2-2.9 0-.8-.3-1.6-.7-2.3l-2-2.5zm-22.3 6.3c-.4 0-.8-.2-1.1-.5-.3-.3-.4-.7-.4-1.1 0-.3.1-.6.3-.9l.2-.3 1.2-1.5 1.2 1.8c.2.2.2.5.2.8-.1 1-.8 1.7-1.6 1.7zm22.1-.4c-.3.3-.7.5-1.1.5-.8 0-1.5-.7-1.5-1.5 0-.3.1-.6.2-.8l1.2-1.8L140 71l.2.3c.2.2.3.5.3.9-.1.3-.2.7-.5 1zM116.2 37.4l.2.3c.1.2.3.3.5.3s.4-.1.5-.3l.2-.3 10.7-15.3L138.8 37l.4.6c.1.2.3.3.5.3s.4-.1.5-.3l.4-.6 13.2-20.8c.4-.6.2-1.4-.4-1.7-.6-.4-1.4-.2-1.7.4l-12 19.1-10.5-14.9-.4-.5c-.1-.2-.3-.3-.5-.3s-.4.1-.5.3l-.4.6L117 34l-12.1-19.1c-.4-.6-1.1-.8-1.7-.4-.6.4-.8 1.1-.4 1.7l13.4 21.2zM116.2 29.1l.1.4c.1.2.3.4.6.4.2 0 .5-.1.6-.3l.2-.5 10.7-23.8 10.8 24.1.1.2c.1.2.3.3.5.3.3 0 .5-.2.6-.4l.1-.2 6.7-20.9c.2-.7-.2-1.4-.8-1.6-.7-.2-1.4.2-1.6.8L139.5 24 129.1.7l-.2-.4c-.1-.2-.3-.4-.6-.4s-.5.2-.6.4l-.2.3L117.2 24 112 7.5c-.2-.7-.9-1-1.6-.8-.7.2-1 .9-.8 1.6l6.6 20.8zM107.1 63.5l-2.5 6.3h1.5l.4-1.1h2.5l.4 1.1h1.5l-2.5-6.3h-1.3zm-.1 4l.8-2 .8 2H107z"/></g><g fill="#000319"><path d="M56.5 146.7c-3.7 0-6.2-2.6-6.2-6.5s2.6-6.5 6.2-6.5 6.2 2.6 6.2 6.5c.1 3.8-2.5 6.5-6.2 6.5zm0-11.5c-2.7 0-4.5 2-4.5 5 0 3.1 1.7 5 4.5 5 2.7 0 4.4-2 4.4-5 .1-3.1-1.7-5-4.4-5zM65.3 143.4c.2 1.3 1.1 2 2.6 2 1.2 0 2-.4 2-1.3 0-.8-.6-1.1-1.7-1.3l-1.5-.3c-1.6-.3-2.6-1-2.6-2.4 0-1.6 1.3-2.7 3.3-2.7 2.3 0 3.7 1.1 3.8 3.1l-1.3.1c-.2-1.3-1-2-2.5-2-1.1 0-1.8.5-1.8 1.3 0 .7.4 1.1 1.3 1.2l1.6.3c1.7.3 2.8 1 2.8 2.5 0 1.7-1.5 2.7-3.6 2.7-2.2 0-3.8-1-4-3.2h1.6zM74.8 133.9v12.5h-1.7v-12.5h1.7zM80.9 146.7c-2.5 0-4.4-1.9-4.4-4.6 0-2.7 1.9-4.6 4.4-4.6 2.6 0 4.5 1.9 4.5 4.6 0 2.7-1.9 4.6-4.5 4.6zm0-1.3c1.8 0 2.8-1.4 2.8-3.3s-1-3.3-2.8-3.3c-1.8 0-2.7 1.4-2.7 3.3s1 3.3 2.7 3.3zM91.5 141.9c.1 2.3 1.7 3.5 3.8 3.5 1.9 0 3-.8 3-2.2 0-1.2-.8-1.7-2.4-2l-2.5-.5c-1.9-.4-3.1-1.4-3.1-3.3 0-2.2 1.7-3.7 4.5-3.7 3.1 0 5 1.7 5 4.5l-1.6.1c-.1-2.1-1.3-3.2-3.4-3.2-1.8 0-2.8.9-2.8 2.2 0 1.2.8 1.6 2.3 1.9l2.3.4c2.3.4 3.4 1.4 3.4 3.4 0 2.3-2 3.6-4.7 3.6-3.1 0-5.3-1.7-5.3-4.7h1.5zM105.8 137.5c2.5 0 3.9 1.7 4.1 3.8l-1.5.1c-.1-1.5-1.1-2.6-2.7-2.6s-2.7 1.3-2.7 3.3c0 2 1.1 3.3 2.7 3.3s2.5-1.1 2.7-2.6l1.5.1c-.2 2.1-1.6 3.8-4.1 3.8-2.6 0-4.5-1.8-4.5-4.6.1-2.8 1.9-4.6 4.5-4.6zM113.2 146.4h-1.7v-12.5h1.7v5.4c.4-1.1 1.6-1.8 2.9-1.8 2.3 0 3.2 1.5 3.2 3.5v5.4h-1.7v-5.3c0-1.5-.7-2.4-2.1-2.4-1.3 0-2.3 1-2.3 2.6v5.1zM125.3 146.7c-2.5 0-4.4-1.9-4.4-4.6 0-2.7 1.9-4.6 4.4-4.6 2.6 0 4.5 1.9 4.5 4.6 0 2.7-1.9 4.6-4.5 4.6zm0-1.3c1.8 0 2.8-1.4 2.8-3.3s-1-3.3-2.8-3.3c-1.8 0-2.7 1.4-2.7 3.3s1 3.3 2.7 3.3zM135.4 146.7c-2.5 0-4.4-1.9-4.4-4.6 0-2.7 1.9-4.6 4.4-4.6 2.6 0 4.5 1.9 4.5 4.6 0 2.7-1.9 4.6-4.5 4.6zm0-1.3c1.8 0 2.8-1.4 2.8-3.3s-1-3.3-2.8-3.3c-1.7 0-2.7 1.4-2.7 3.3s1 3.3 2.7 3.3zM143.2 133.9v12.5h-1.7v-12.5h1.7zM152.9 146.7c-2.5 0-4.4-1.9-4.4-4.6 0-2.7 1.9-4.6 4.4-4.6 2.6 0 4.5 1.9 4.5 4.6 0 2.7-1.9 4.6-4.5 4.6zm0-1.3c1.8 0 2.8-1.4 2.8-3.3s-1-3.3-2.8-3.3c-1.8 0-2.7 1.4-2.7 3.3s1 3.3 2.7 3.3zM158.1 139v-1.2h1.3v-1c0-1.8 1.1-3.1 2.9-3.1 1.5 0 2.3.7 2.7 2l-1.1.4c-.2-.7-.7-1.2-1.5-1.2-.9 0-1.3.7-1.3 1.7v1.2h2.4v1.2H161v7.5h-1.6V139h-1.3zM174.4 133.9l5.2 12.5h-1.8l-1.5-3.7h-5.7l-1.5 3.7h-1.7l5.1-12.5h1.9zm-3.3 7.5h4.6l-2.3-5.6h-.1l-2.2 5.6zM186.2 139.4c-.5-.3-.8-.4-1.4-.4-1.3 0-2.2 1.1-2.2 2.8v4.6H181v-8.7h1.6v1.8c.3-1 1.2-2 2.5-2 .5 0 .9.1 1.2.4l-.1 1.5zM188.1 139h-1.3v-.9l.6-.1c.8-.2 1-.6 1.2-1.4l.3-1.2h.9v2.4h2.4v1.2h-2.4v5.3c0 .8.3 1.1 1.1 1.1.6 0 1.1-.2 1.6-.5v1.1c-.6.5-1.3.7-2.2.7-1.2 0-2.1-.6-2.1-2.3V139zM194.7 143.4c.2 1.3 1.1 2 2.6 2 1.2 0 2-.4 2-1.3 0-.8-.6-1.1-1.7-1.3l-1.5-.3c-1.6-.3-2.6-1-2.6-2.4 0-1.6 1.3-2.7 3.3-2.7 2.3 0 3.7 1.1 3.8 3.1l-1.3.1c-.2-1.3-1-2-2.5-2-1.1 0-1.8.5-1.8 1.3 0 .7.4 1.1 1.3 1.2l1.6.3c1.7.3 2.8 1 2.8 2.5 0 1.7-1.5 2.7-3.6 2.7-2.2 0-3.8-1-4-3.2h1.6zM202.2 144.5h2v1.9c0 1.4-.4 2.2-2 2.2v-1c.7-.1.9-.3.9-1.2h-.9v-1.9zM6.1 157.5c3.6 0 5.6 2.2 5.8 5.4l-1.7.1c-.1-2.3-1.6-4-4.2-4-2.5 0-4.4 1.9-4.4 5s1.8 5 4.4 5c2.6 0 4-1.7 4.2-4l1.7.1c-.2 3.2-2.3 5.4-5.8 5.4S0 167.9 0 164c0-3.8 2.7-6.5 6.1-6.5zM17.6 170.6c-2.5 0-4.4-1.9-4.4-4.6 0-2.7 1.9-4.6 4.4-4.6 2.6 0 4.5 1.9 4.5 4.6 0 2.7-1.9 4.6-4.5 4.6zm0-1.3c1.8 0 2.8-1.4 2.8-3.3 0-2-1-3.3-2.8-3.3-1.8 0-2.7 1.4-2.7 3.3s1 3.3 2.7 3.3zM34 161.4c2.3 0 3.1 1.6 3.1 3.5v5.4h-1.7V165c0-1.4-.6-2.4-1.9-2.4-1.2 0-2.2 1-2.2 2.6v5h-1.7v-5.3c0-1.4-.6-2.4-1.9-2.4-1.2 0-2.2 1-2.2 2.6v5h-1.7v-8.7h1.7v1.6c.4-1.1 1.4-1.8 2.8-1.8 1.6 0 2.5.8 2.8 1.9.4-.9 1.5-1.7 2.9-1.7zM49.4 161.4c2.3 0 3.1 1.6 3.1 3.5v5.4h-1.7V165c0-1.4-.6-2.4-1.9-2.4-1.2 0-2.2 1-2.2 2.6v5H45v-5.3c0-1.4-.6-2.4-1.9-2.4-1.2 0-2.2 1-2.2 2.6v5h-1.7v-8.7h1.7v1.6c.4-1.1 1.4-1.8 2.8-1.8 1.6 0 2.5.8 2.8 1.9.4-.9 1.5-1.7 2.9-1.7zM60.5 161.6h1.7v8.7h-1.7v-1.5c-.4 1-1.5 1.8-2.8 1.8-2.3 0-3.1-1.5-3.1-3.5v-5.4h1.7v5.2c0 1.5.6 2.4 2 2.4 1.3 0 2.3-1 2.3-2.6v-5.1zM66 170.3h-1.7v-8.7H66v1.6c.4-1.1 1.6-1.8 2.9-1.8 2.3 0 3.2 1.5 3.2 3.5v5.4h-1.7V165c0-1.4-.7-2.4-2.1-2.4-1.3 0-2.3 1-2.3 2.6v5.1zM74.2 157.8h1.7v1.9h-1.7v-1.9zm1.7 3.8v8.7h-1.7v-8.7h1.7zM82.1 161.4c2.5 0 3.9 1.7 4.1 3.8l-1.5.1c-.1-1.5-1.1-2.6-2.7-2.6s-2.7 1.3-2.7 3.3c0 2 1.1 3.3 2.7 3.3s2.5-1.1 2.7-2.6l1.5.1c-.2 2.1-1.6 3.8-4.1 3.8-2.6 0-4.5-1.8-4.5-4.6s1.8-4.6 4.5-4.6zM94.8 168.6c0 .5.3.7.7.7.2 0 .5-.1.8-.2v.9c-.3.3-.7.5-1.3.5-.9 0-1.5-.7-1.6-1.7-.5 1-1.7 1.8-3.1 1.8-1.7 0-2.8-.9-2.8-2.4 0-1.7 1.4-2.3 3.5-2.7l2.3-.5v-.3c0-1.2-.7-1.9-1.9-1.9-1.3 0-1.9.7-2.2 1.7l-1.5-.2c.3-1.6 1.6-2.8 3.7-2.8 2.2 0 3.5 1.1 3.5 3.3v3.8zm-1.5-2.6l-1.9.4c-1.4.3-2.2.6-2.2 1.6 0 .7.5 1.3 1.5 1.3 1.5 0 2.7-1.2 2.7-2.9v-.4zM97.8 162.8h-1.3v-.9l.6-.1c.8-.2 1-.6 1.2-1.4l.3-1.2h.9v2.4h2.4v1.2h-2.4v5.3c0 .8.3 1.1 1.1 1.1.6 0 1.1-.2 1.6-.5v1.1c-.6.5-1.3.7-2.2.7-1.2 0-2.1-.6-2.1-2.3v-5.4zM103.5 157.8h1.7v1.9h-1.7v-1.9zm1.7 3.8v8.7h-1.7v-8.7h1.7zM111.3 170.6c-2.5 0-4.4-1.9-4.4-4.6 0-2.7 1.9-4.6 4.4-4.6 2.6 0 4.5 1.9 4.5 4.6 0 2.7-1.9 4.6-4.5 4.6zm0-1.3c1.8 0 2.8-1.4 2.8-3.3 0-2-1-3.3-2.8-3.3-1.8 0-2.7 1.4-2.7 3.3s1 3.3 2.7 3.3zM119.1 170.3h-1.6v-8.7h1.6v1.6c.4-1.1 1.6-1.8 2.9-1.8 2.3 0 3.2 1.5 3.2 3.5v5.4h-1.7V165c0-1.4-.7-2.4-2.1-2.4-1.3 0-2.3 1-2.3 2.6v5.1zM137.9 168.6c0 .5.3.7.7.7.2 0 .5-.1.8-.2v.9c-.3.3-.7.5-1.3.5-.9 0-1.5-.7-1.6-1.7-.5 1-1.7 1.8-3.1 1.8-1.7 0-2.8-.9-2.8-2.4 0-1.7 1.4-2.3 3.5-2.7l2.3-.5v-.3c0-1.2-.7-1.9-1.9-1.9-1.3 0-1.9.7-2.2 1.7l-1.5-.2c.3-1.6 1.6-2.8 3.7-2.8 2.2 0 3.5 1.1 3.5 3.3v3.8zm-1.6-2.6l-1.9.4c-1.4.3-2.2.6-2.2 1.6 0 .7.5 1.3 1.5 1.3 1.5 0 2.7-1.2 2.7-2.9v-.4zM142.3 170.3h-1.7v-8.7h1.7v1.6c.4-1.1 1.6-1.8 2.9-1.8 2.3 0 3.2 1.5 3.2 3.5v5.4h-1.7V165c0-1.4-.7-2.4-2.1-2.4-1.3 0-2.3 1-2.3 2.6v5.1zM157.1 168.5c-.4 1.1-1.5 2-3.1 2-2.6 0-4-2-4-4.6 0-2.6 1.4-4.6 4-4.6 1.6 0 2.7 1 3.1 2.1v-5.7h1.6v12.5h-1.6v-1.7zm0-2.8c0-1.9-1.2-3-2.8-3-1.7 0-2.7 1.3-2.7 3.3 0 2 1 3.3 2.7 3.3 1.6 0 2.8-1.1 2.8-3v-.6zM168.4 170.3v-11.1h-4.6v-1.4h10.9v1.4h-4.6v11.1h-1.7zM182.5 167.4c-.4 2-1.9 3.2-4.1 3.2-2.6 0-4.5-1.8-4.5-4.5s1.9-4.7 4.4-4.7c2.8 0 4.2 2 4.2 4.3v.7h-6.9c.1 1.7 1.3 2.9 2.8 2.9 1.5 0 2.3-.7 2.7-2l1.4.1zm-1.6-2.1c-.1-1.4-.8-2.7-2.5-2.7-1.6 0-2.5 1.2-2.7 2.7h5.2zM188.2 161.4c2.5 0 3.9 1.7 4.1 3.8l-1.5.1c-.1-1.5-1.1-2.6-2.7-2.6s-2.7 1.3-2.7 3.3c0 2 1.1 3.3 2.7 3.3s2.5-1.1 2.7-2.6l1.5.1c-.2 2.1-1.6 3.8-4.1 3.8-2.6 0-4.5-1.8-4.5-4.6.1-2.8 1.9-4.6 4.5-4.6zM195.7 170.3H194v-12.5h1.7v5.4c.4-1.1 1.6-1.8 2.9-1.8 2.3 0 3.2 1.5 3.2 3.5v5.4h-1.7V165c0-1.4-.7-2.4-2.1-2.4-1.3 0-2.3 1-2.3 2.6v5.1zM205.5 170.3h-1.7v-8.7h1.7v1.6c.4-1.1 1.6-1.8 2.9-1.8 2.3 0 3.2 1.5 3.2 3.5v5.4H210V165c0-1.4-.7-2.4-2.1-2.4-1.3 0-2.3 1-2.3 2.6v5.1zM217.6 170.6c-2.5 0-4.4-1.9-4.4-4.6 0-2.7 1.9-4.6 4.4-4.6 2.6 0 4.5 1.9 4.5 4.6 0 2.7-1.9 4.6-4.5 4.6zm0-1.3c1.8 0 2.8-1.4 2.8-3.3 0-2-1-3.3-2.8-3.3-1.7 0-2.7 1.4-2.7 3.3s1 3.3 2.7 3.3zM225.4 157.8v12.5h-1.6v-12.5h1.6zM231.5 170.6c-2.5 0-4.4-1.9-4.4-4.6 0-2.7 1.9-4.6 4.4-4.6 2.6 0 4.5 1.9 4.5 4.6 0 2.7-1.9 4.6-4.5 4.6zm0-1.3c1.8 0 2.8-1.4 2.8-3.3 0-2-1-3.3-2.8-3.3-1.7 0-2.7 1.4-2.7 3.3s1 3.3 2.7 3.3zM241.2 167.3c-.7 0-1.4-.1-1.9-.4-.3.2-.6.5-.6.9 0 .5.3.8 1.1.8h3.4c1.9 0 2.9 1 2.9 2.3 0 2.2-2.4 3-5 3-2.3 0-4.3-.7-4.3-2.3 0-1 .7-1.6 1.8-1.8-.8-.3-1.2-.8-1.2-1.5 0-.8.5-1.3 1.3-1.6-.7-.5-1.1-1.3-1.1-2.2 0-1.8 1.5-3 3.6-3 1.1 0 2.1.3 2.7.9.5-.7 1.3-1.2 2.2-1.2v1.4c-.6 0-1.2.1-1.7.4.3.4.4.9.4 1.5.1 1.7-1.5 2.8-3.6 2.8zm-.2 5.5c2 0 3.4-.5 3.4-1.7 0-.8-.7-1.1-1.7-1.1H240c-.9 0-1.7.3-1.7 1.2 0 1.1 1.1 1.6 2.7 1.6zm.2-10.3c-1.2 0-2 .7-2 1.9s.8 1.9 2 1.9 2-.7 2-1.9c0-1.3-.8-1.9-2-1.9zM248.5 173.7l1.4-3.4-3.7-8.7h1.7l2.8 6.7h.1l2.7-6.7h1.6l-5 12h-1.6z"/></g></svg>